<?xml version="1.0" encoding="UTF-8" standalone="no"?>
<!DOCTYPE svg PUBLIC "-//W3C//DTD SVG 1.1//EN" "http://www.w3.org/Graphics/SVG/1.1/DTD/svg11.dtd">
<svg width="100%" height="100%" viewBox="0 0 44 48" version="1.1" xmlns="http://www.w3.org/2000/svg" xmlns:xlink="http://www.w3.org/1999/xlink" xml:space="preserve" xmlns:serif="http://www.serif.com/" style="fill-rule:evenodd;clip-rule:evenodd;stroke-linejoin:round;stroke-miterlimit:2;">
    <g transform="matrix(1,0,0,1,-11.1105,-8.70892)">
        <path d="M54.29,33.54C53.669,46.062 43.197,56.028 30.659,56.028C29.054,56.028 27.452,55.864 25.88,55.54C22.233,54.777 19.598,51.533 19.598,47.807C19.598,45.864 20.314,43.988 21.61,42.54C22.913,41.092 23.635,39.211 23.635,37.263C23.635,33.542 21.002,30.302 17.36,29.54C13.728,28.76 11.111,25.521 11.111,21.806C11.111,19.823 11.857,17.91 13.2,16.45C17.676,11.522 24.033,8.709 30.691,8.709C43.654,8.709 54.321,19.376 54.321,32.339C54.321,32.739 54.31,33.14 54.29,33.54ZM23.36,17.19C23.357,17.19 23.353,17.19 23.35,17.19C21.616,17.19 20.19,18.616 20.19,20.35C20.19,22.084 21.616,23.51 23.35,23.51C25.084,23.51 26.51,22.084 26.51,20.35C26.51,20.347 26.51,20.343 26.51,20.34C26.51,18.612 25.088,17.19 23.36,17.19ZM37.2,17.19C35.466,17.19 34.04,18.616 34.04,20.35C34.04,22.084 35.466,23.51 37.2,23.51C38.934,23.51 40.36,22.084 40.36,20.35C40.36,20.347 40.36,20.34 40.36,20.34C40.36,18.612 38.938,17.19 37.21,17.19C37.207,17.19 37.203,17.19 37.2,17.19ZM44.12,29.19C42.392,29.19 40.97,30.612 40.97,32.34C40.97,34.068 42.392,35.49 44.12,35.49C45.848,35.49 47.27,34.068 47.27,32.34C47.243,30.631 45.829,29.24 44.12,29.24L44.12,29.19ZM36.54,41.49C35.098,41.805 34.062,43.092 34.062,44.568C34.062,46.296 35.484,47.718 37.212,47.718C38.94,47.718 40.362,46.296 40.362,44.568C40.362,44.343 40.338,44.119 40.29,43.9C39.982,42.456 38.695,41.416 37.219,41.416C36.991,41.416 36.763,41.441 36.54,41.49Z" style="fill-rule:nonzero;"/>
    </g>
</svg>
