<?xml version="1.0" encoding="UTF-8" standalone="no"?>
<!DOCTYPE svg PUBLIC "-//W3C//DTD SVG 1.1//EN" "http://www.w3.org/Graphics/SVG/1.1/DTD/svg11.dtd">
<svg width="100%" height="100%" viewBox="0 0 96 77" version="1.1" xmlns="http://www.w3.org/2000/svg" xmlns:xlink="http://www.w3.org/1999/xlink" xml:space="preserve" xmlns:serif="http://www.serif.com/" style="fill-rule:evenodd;clip-rule:evenodd;stroke-linejoin:round;stroke-miterlimit:2;">
    <g transform="matrix(1,0,0,1,-7.03504,-21.5368)">
        <g transform="matrix(1,0,0,1,5,10)">
            <path d="M97.812,68.047C97.394,67.028 96.222,66.535 95.203,66.957C94.859,67.098 61.129,80.957 54.047,83.324C48.344,81.055 50.519,74.703 50.551,74.551C50.574,74.508 94.426,56.367 94.426,56.367C95.293,56.011 95.89,55.308 96.07,54.445C96.25,53.578 95.976,52.695 95.32,52.023L56.89,12.625C55.98,11.695 54.472,11.305 53.226,11.676L5.664,25.938C4.664,26.239 -0.395,33.867 3.469,42.153C3.555,42.332 42.942,85.911 42.942,85.911C43.379,86.395 46.078,88.465 48.399,88.465C49.984,88.465 52.145,88.157 55.047,87.215C61.711,85.051 95.301,71.25 96.727,70.66C97.747,70.239 98.235,69.071 97.813,68.047L97.812,68.047Z" style="fill-rule:nonzero;"/>
        </g>
    </g>
</svg>
