<?xml version="1.0" encoding="UTF-8" standalone="no"?>
<!DOCTYPE svg PUBLIC "-//W3C//DTD SVG 1.1//EN" "http://www.w3.org/Graphics/SVG/1.1/DTD/svg11.dtd">
<svg width="100%" height="100%" viewBox="0 0 47 83" version="1.1" xmlns="http://www.w3.org/2000/svg" xmlns:xlink="http://www.w3.org/1999/xlink" xml:space="preserve" xmlns:serif="http://www.serif.com/" style="fill-rule:evenodd;clip-rule:evenodd;stroke-linejoin:round;stroke-miterlimit:2;">
    <g transform="matrix(1,0,0,1,-31.5906,-18.9337)">
        <g transform="matrix(1,0,0,1,5,10)">
            <path d="M44.25,22.789C43.672,23.43 42.77,23.66 41.84,23.508C41.602,22.578 41.762,21.68 42.352,21.039C42.941,20.398 43.832,20.168 44.773,20.328C45,21.25 44.84,22.16 44.25,22.789L44.25,22.789Z" style="fill-rule:nonzero;"/>
        </g>
        <g transform="matrix(1,0,0,1,5,10)">
            <path d="M53.809,29.359C52.868,29.199 51.981,29.429 51.387,30.07C50.786,30.711 50.637,31.621 50.868,32.55C51.809,32.691 52.696,32.461 53.289,31.832C53.879,31.191 54.032,30.289 53.809,29.359L53.809,29.359ZM53.809,29.359C52.868,29.199 51.981,29.429 51.387,30.07C50.786,30.711 50.637,31.621 50.868,32.55C51.809,32.691 52.696,32.461 53.289,31.832C53.879,31.191 54.032,30.289 53.809,29.359L53.809,29.359ZM53.809,29.359C52.868,29.199 51.981,29.429 51.387,30.07C50.786,30.711 50.637,31.621 50.868,32.55C51.809,32.691 52.696,32.461 53.289,31.832C53.879,31.191 54.032,30.289 53.809,29.359L53.809,29.359ZM53.809,29.359C52.868,29.199 51.981,29.429 51.387,30.07C50.786,30.711 50.637,31.621 50.868,32.55C51.809,32.691 52.696,32.461 53.289,31.832C53.879,31.191 54.032,30.289 53.809,29.359L53.809,29.359ZM71.211,72.75C71.231,72.359 71.422,72.012 71.582,71.66C74.863,64.809 73.652,56.058 68.621,50.371C67.352,48.93 65.883,47.68 64.481,46.36C61.742,43.781 59.391,40.891 57.219,37.809C57.731,37.078 58.649,36.738 59.231,36.059C59.84,35.348 60.262,34.399 60.559,33.52C60.609,33.379 60.649,33.238 60.68,33.098L60.68,33.078C61.129,31.488 61.141,29.797 60.801,28.18C60.449,26.418 59.731,24.75 58.781,23.211C57.781,21.609 56.531,20.172 55.152,18.98C55.113,18.941 55.063,18.91 55.024,18.871C51.535,15.91 47.422,14.59 43.262,15.102C41.402,15.32 39.531,15.91 37.691,16.883C33.801,18.941 32.472,24.563 34.262,28.422C34.57,29.101 34.98,29.762 35.082,30.5C35.222,31.441 34.851,32.359 34.523,33.25C31.472,41.281 30.273,50.012 31.043,58.57C31.344,61.929 31.965,65.332 33.512,68.332C32.371,67.683 31.183,67.023 29.863,66.921C28.555,66.832 27.094,67.492 26.691,68.75C26.371,69.781 26.851,70.921 27.621,71.671C28.391,72.421 29.402,72.863 30.39,73.273C32.93,74.324 35.5,75.293 38.012,76.414C43.183,78.703 48.313,81.675 53.973,81.855C58.582,81.996 63.223,80.136 66.461,76.855C67.32,79.066 66.3,81.683 64.519,83.234C62.73,84.785 60.32,85.433 57.968,85.683C54.98,86.011 51.929,85.785 49.019,84.992C47.168,84.503 45.379,83.781 43.488,83.441C42.308,83.242 38.039,82.89 37.816,84.679C37.675,85.839 38.246,87.007 39.105,87.808C40.285,88.898 41.875,89.308 43.394,89.66C47.625,90.648 51.984,91.351 56.316,90.941C60.637,90.531 64.965,88.921 68.027,85.831C71.086,82.742 72.668,78.042 71.426,73.882C71.32,73.511 71.18,73.129 71.211,72.75L71.211,72.75ZM46.059,24.461C44.649,25.992 42.278,26.082 40.75,24.68C39.231,23.27 39.129,20.891 40.539,19.359C41.95,17.84 44.329,17.738 45.848,19.149C47.379,20.559 47.469,22.942 46.059,24.461L46.059,24.461ZM55.102,33.5C53.692,35.031 51.313,35.121 49.793,33.711C48.262,32.313 48.172,29.93 49.582,28.402C50.981,26.883 53.364,26.781 54.891,28.191C56.411,29.602 56.512,31.981 55.102,33.5ZM51.391,30.07C50.79,30.711 50.641,31.621 50.872,32.551C51.813,32.692 52.7,32.461 53.293,31.832C53.883,31.192 54.032,30.293 53.813,29.363C52.872,29.199 51.981,29.43 51.391,30.07L51.391,30.07ZM53.809,29.359C52.868,29.199 51.981,29.43 51.387,30.07C50.786,30.711 50.637,31.621 50.868,32.551C51.809,32.692 52.696,32.461 53.29,31.832C53.879,31.192 54.032,30.289 53.809,29.359L53.809,29.359ZM53.809,29.359C52.868,29.199 51.981,29.43 51.387,30.07C50.786,30.711 50.637,31.621 50.868,32.551C51.809,32.692 52.696,32.461 53.29,31.832C53.879,31.192 54.032,30.289 53.809,29.359L53.809,29.359Z" style="fill-rule:nonzero;"/>
        </g>
        <g transform="matrix(1,0,0,1,5,10)">
            <path d="M41.73,16.047C41.96,15.731 42.617,15.488 42.941,15.289C43.839,14.746 44.742,14.211 45.648,13.676C47.878,12.352 50.085,11.039 52.382,9.84C53.882,9.059 55.074,8.934 56.722,8.934L54.574,21.454C54.578,21.458 41.73,16.048 41.73,16.048L41.73,16.047Z" style="fill-rule:nonzero;"/>
        </g>
        <g transform="matrix(1,0,0,1,5,10)">
            <path d="M57.172,23.16C57.172,23.16 69.207,23.555 69.246,23.555C70.031,23.582 69.695,25.137 69.519,25.531C68.988,26.711 67.855,27.719 66.891,28.539C64.426,30.633 61.816,32.375 59.098,34.121L57.172,23.16Z" style="fill-rule:nonzero;"/>
        </g>
    </g>
</svg>
