<?xml version="1.0" encoding="UTF-8" standalone="no"?>
<!DOCTYPE svg PUBLIC "-//W3C//DTD SVG 1.1//EN" "http://www.w3.org/Graphics/SVG/1.1/DTD/svg11.dtd">
<svg width="100%" height="100%" viewBox="0 0 83 52" version="1.1" xmlns="http://www.w3.org/2000/svg" xmlns:xlink="http://www.w3.org/1999/xlink" xml:space="preserve" xmlns:serif="http://www.serif.com/" style="fill-rule:evenodd;clip-rule:evenodd;stroke-linejoin:round;stroke-miterlimit:2;">
    <g transform="matrix(1,0,0,1,-13.6946,-33.7009)">
        <g transform="matrix(1,0,0,1,5,10)">
            <path d="M91.012,64.168L85.602,39.242C85.52,38.785 85.395,38.328 85.309,37.867L85.102,36.953C85.059,36.703 84.934,36.496 84.852,36.246C82.688,29.504 77.11,24.676 70.536,24.676C56.732,23.39 43.026,23.376 29.418,24.633C22.844,24.633 17.266,29.461 15.102,36.203C15.02,36.453 14.934,36.66 14.852,36.91L14.645,37.824C14.563,38.281 14.438,38.699 14.352,39.199L8.942,64.125C7.153,72.406 15.477,78.605 21.219,73.238C21.219,73.238 28.711,66.207 34.367,60.922C38.32,57.176 43.312,55.18 48.433,55.18L51.472,55.18C56.589,55.18 61.542,57.219 65.538,60.922C71.198,66.208 78.686,73.238 78.686,73.238C84.428,78.606 92.791,72.406 90.963,64.125L91.012,64.168ZM39.95,43.07L35.122,43.07L35.122,47.898C35.122,49.023 34.208,49.937 33.083,49.937C31.958,49.937 31.044,49.023 31.044,47.898L31.044,43.07L26.216,43.07C25.091,43.07 24.177,42.156 24.177,41.031C24.177,39.906 25.091,38.992 26.216,38.992L31.044,38.992L31.044,34.164C31.044,33.039 31.958,32.125 33.083,32.125C34.208,32.125 35.122,33.039 35.122,34.164L35.122,38.992L39.95,38.992C41.075,38.992 41.989,39.906 41.989,41.031C41.989,42.156 41.075,43.07 39.95,43.07ZM64.044,43.82C62.505,43.82 61.216,42.57 61.216,40.992C61.216,39.41 62.466,38.164 64.044,38.164C65.626,38.164 66.872,39.414 66.872,40.992C66.872,42.574 65.622,43.82 64.044,43.82ZM70.204,49.98C68.665,49.98 67.376,48.73 67.376,47.152C67.376,45.57 68.626,44.324 70.204,44.324C71.786,44.324 73.032,45.574 73.032,47.152C73.032,48.734 71.782,49.98 70.204,49.98ZM70.204,37.703C68.665,37.703 67.376,36.453 67.376,34.875C67.376,33.293 68.626,32.047 70.204,32.047C71.786,32.047 73.032,33.297 73.032,34.875C73.032,36.457 71.782,37.703 70.204,37.703ZM76.364,43.863C74.825,43.863 73.536,42.613 73.536,41.035C73.536,39.453 74.786,38.207 76.364,38.207C77.946,38.207 79.193,39.457 79.193,41.035C79.193,42.617 77.943,43.863 76.364,43.863Z" style="fill-rule:nonzero;"/>
        </g>
    </g>
</svg>
