<?xml version="1.0" encoding="UTF-8" standalone="no"?>
<!DOCTYPE svg PUBLIC "-//W3C//DTD SVG 1.1//EN" "http://www.w3.org/Graphics/SVG/1.1/DTD/svg11.dtd">
<svg width="100%" height="100%" viewBox="0 0 16 16" version="1.1" xmlns="http://www.w3.org/2000/svg" xmlns:xlink="http://www.w3.org/1999/xlink" xml:space="preserve" xmlns:serif="http://www.serif.com/" style="fill-rule:evenodd;clip-rule:evenodd;stroke-linejoin:round;stroke-miterlimit:2;">
    <g transform="matrix(0.0268456,0,0,0.0288809,-10.1208,-43.1191)">
        <rect id="Artboard1" x="377" y="1493" width="596" height="554" style="fill:none;"/>
        <g id="Artboard11" serif:id="Artboard1">
            <g transform="matrix(5.09402,0,0,4.735,101.923,882.191)">
                <g>
                    <path d="M171,144.523C171,140.406 169.365,136.458 166.453,133.547C163.542,130.635 159.594,129 155.477,129L54,129L54,230.477C54,234.594 55.635,238.542 58.547,241.453C61.458,244.365 65.406,246 69.523,246L171,246L171,144.523Z" style="fill:white;"/>
                </g>
            </g>
            <g transform="matrix(-13.1181,0,0,-12.1936,3100.88,3711.94)">
                <g>
                    <path d="M190.771,164.154L190.771,153.306C190.771,148.946 194.306,145.412 198.665,145.412L198.771,145.412L198.771,173.105L190.937,173.105C190.831,173.105 190.729,173.062 190.654,172.987C190.11,172.444 187.802,170.136 186.495,168.828C186.374,168.707 186.338,168.525 186.404,168.366C186.469,168.208 186.624,168.105 186.795,168.105L186.796,168.105C188.982,168.105 190.758,166.337 190.771,164.154Z" style="fill:rgb(15,134,126);"/>
                </g>
            </g>
            <g transform="matrix(13.1181,0,0,12.1936,-1750.85,-171.92)">
                <g>
                    <path d="M190.771,164.154L190.771,153.306C190.771,148.946 194.306,145.412 198.665,145.412L198.771,145.412L198.771,173.105L190.937,173.105C190.831,173.105 190.729,173.062 190.654,172.987C190.11,172.444 187.802,170.136 186.495,168.828C186.374,168.707 186.338,168.525 186.404,168.366C186.469,168.208 186.624,168.105 186.795,168.105L186.796,168.105C188.982,168.105 190.758,166.337 190.771,164.154Z" style="fill:rgb(15,134,126);"/>
                </g>
            </g>
            <g transform="matrix(1.02119e-15,-12.1936,-3.52018,5.52001e-16,1228.61,4144.97)">
                <g>
                    <path d="M191.171,172.209C190.95,172.209 190.771,171.541 190.771,170.718L190.771,157.257C190.771,153.297 191.193,149.5 191.945,146.7C192.696,143.9 193.715,142.327 194.778,142.327L198.371,142.327C198.592,142.327 198.771,142.994 198.771,143.817L198.771,157.278C198.771,161.238 198.349,165.036 197.598,167.836C196.847,170.636 195.827,172.209 194.765,172.209L191.171,172.209Z" style="fill:rgb(15,134,126);"/>
                </g>
            </g>
        </g>
    </g>
</svg>
