<?xml version="1.0" encoding="UTF-8" standalone="no"?>
<!DOCTYPE svg PUBLIC "-//W3C//DTD SVG 1.1//EN" "http://www.w3.org/Graphics/SVG/1.1/DTD/svg11.dtd">
<svg width="100%" height="100%" viewBox="0 0 48 48" version="1.1" xmlns="http://www.w3.org/2000/svg" xmlns:xlink="http://www.w3.org/1999/xlink" xml:space="preserve" xmlns:serif="http://www.serif.com/" style="fill-rule:evenodd;clip-rule:evenodd;stroke-linejoin:round;stroke-miterlimit:2;">
    <g transform="matrix(1,0,0,1,-35.0005,-31.0048)">
        <g transform="matrix(0.117503,0,0,0.117503,-275.334,-131.802)">
            <g transform="matrix(0.88761,0,0,0.88761,2012.8,-1127.88)">
                <path d="M1168.06,2892.75L1168.06,3291.91L768.895,3291.91C752.7,3291.91 737.171,3285.48 725.72,3274.03C714.266,3262.58 707.834,3247.05 707.834,3230.85L707.834,2831.69L1107,2831.69C1123.19,2831.69 1138.73,2838.12 1150.17,2849.58C1161.63,2861.03 1168.06,2876.56 1168.06,2892.75ZM897.334,3098.27C897.334,3100.51 899.15,3102.32 901.387,3102.32L937.977,3102.32C948.742,3102.32 959.063,3098.05 966.674,3090.43C974.285,3082.82 978.561,3072.5 978.561,3061.73L978.561,3025.34C978.561,3023.1 976.748,3021.28 974.511,3021.28L937.92,3021.28C927.156,3021.28 916.832,3025.56 909.221,3033.17C901.61,3040.77 897.334,3051.11 897.334,3061.86L897.334,3098.27ZM878.749,3012.21C878.88,2990.1 896.871,2972.19 919.014,2972.19L919.024,2972.19C920.757,2972.19 922.327,2971.14 922.985,2969.54C923.654,2967.93 923.289,2966.09 922.063,2964.86C908.824,2951.61 885.444,2928.23 879.934,2922.73C879.174,2921.97 878.141,2921.54 877.067,2921.54L797.711,2921.54L797.711,3202.06L798.785,3202.06C842.94,3202.06 878.749,3166.26 878.749,3122.1L878.749,3012.21ZM997.171,3111.41C997.039,3133.52 979.049,3151.43 956.906,3151.43L956.895,3151.43C955.163,3151.43 953.593,3152.47 952.935,3154.07C952.266,3155.68 952.631,3157.53 953.856,3158.75C967.096,3172 990.475,3195.38 995.986,3200.88C996.746,3201.64 997.779,3202.08 998.853,3202.08L1078.21,3202.08L1078.21,2921.56L1077.13,2921.56C1032.98,2921.56 997.171,2957.36 997.171,3001.52L997.171,3111.41Z" style="fill:white;"/>
            </g>
            <g transform="matrix(1,0,0,1,2641.08,1385.55)">
                <path d="M151.706,160.236L151.706,257.776C151.706,296.973 119.922,328.749 80.729,328.749L79.776,328.749L79.776,79.757L150.213,79.757C151.167,79.757 152.084,80.138 152.758,80.813C157.649,85.695 178.401,106.447 190.152,118.208C191.24,119.3 191.564,120.933 190.971,122.362C190.387,123.782 188.993,124.714 187.455,124.714L187.446,124.714C167.792,124.714 151.823,140.611 151.706,160.236Z" style="fill:rgb(41,144,127);"/>
            </g>
            <g transform="matrix(1,0,0,1,2641.08,1385.55)">
                <path d="M168.203,236.624L168.203,204.306C168.203,194.764 171.998,185.586 178.754,178.841C185.509,172.086 194.673,168.287 204.227,168.287L236.706,168.287C238.691,168.287 240.3,169.902 240.3,171.891L240.3,204.191C240.3,213.75 236.505,222.91 229.749,229.665C222.994,236.429 213.833,240.219 204.278,240.219L171.8,240.219C169.814,240.219 168.203,238.612 168.203,236.624Z" style="fill:rgb(41,144,127);"/>
            </g>
            <g transform="matrix(1,0,0,1,2641.08,1385.55)">
                <path d="M256.819,248.287L256.819,150.748C256.819,111.551 288.603,79.774 327.791,79.774L328.75,79.774L328.75,328.767L258.312,328.767C257.358,328.767 256.442,328.376 255.767,327.702C250.875,322.82 230.124,302.067 218.372,290.307C217.285,289.224 216.961,287.582 217.554,286.153C218.139,284.732 219.532,283.809 221.069,283.809L221.079,283.809C240.734,283.809 256.702,267.912 256.819,248.287Z" style="fill:rgb(41,144,127);"/>
            </g>
        </g>
    </g>
</svg>
