<?xml version="1.0" encoding="UTF-8" standalone="no"?>
<!DOCTYPE svg PUBLIC "-//W3C//DTD SVG 1.1//EN" "http://www.w3.org/Graphics/SVG/1.1/DTD/svg11.dtd">
<svg width="100%" height="100%" viewBox="0 0 16 16" version="1.1" xmlns="http://www.w3.org/2000/svg" xmlns:xlink="http://www.w3.org/1999/xlink" xml:space="preserve" xmlns:serif="http://www.serif.com/" style="fill-rule:evenodd;clip-rule:evenodd;stroke-linejoin:round;stroke-miterlimit:2;">
    <g transform="matrix(0.865248,0,0,0.865248,-119.715,-56.271)">
        <g>
            <g transform="matrix(1.08775,0,0,1.15574,139.447,65.0345)">
                <path d="M16,1.864C16,1.37 15.791,0.896 15.42,0.546C15.049,0.197 14.545,0 14.02,0L0.98,0C0.455,0 -0.049,0.197 -0.42,0.546C-0.791,0.896 -1,1.37 -1,1.864L-1,14.136C-1,14.631 -0.791,15.105 -0.42,15.454C-0.049,15.804 0.455,16 0.98,16L14.02,16C14.545,16 15.049,15.804 15.42,15.454C15.791,15.105 16,14.631 16,14.136L16,1.864Z" style="fill:white;"/>
            </g>
            <g transform="matrix(1.42285,0,0,1.42285,136.222,63.9168)">
                <path d="M5.525,10.976C4.594,10.976 3.828,10.21 3.828,9.279C3.828,5.681 4.307,4.56 4.738,3.986C5.022,3.606 5.542,3.482 5.966,3.694C5.967,3.694 5.967,3.694 5.968,3.695C6.327,3.88 6.656,4.118 6.942,4.402C6.982,4.441 7.04,4.456 7.094,4.44C7.7,4.264 8.34,4.252 8.951,4.404C9.002,4.417 9.057,4.402 9.095,4.365C9.373,4.098 9.688,3.872 10.032,3.695C10.032,3.695 10.032,3.695 10.033,3.694C10.457,3.482 10.978,3.606 11.262,3.986C11.693,4.56 12.172,5.681 12.172,9.279C12.172,10.21 11.406,10.976 10.475,10.976L5.525,10.976ZM10.654,4.564C10.608,4.496 10.517,4.475 10.447,4.517C10.256,4.631 9.909,4.87 9.641,5.208C9.521,5.363 9.311,5.418 9.129,5.34C8.463,5.068 7.714,5.069 7.048,5.341C6.867,5.418 6.657,5.363 6.537,5.207C6.154,4.729 5.612,4.448 5.594,4.439C5.527,4.405 5.446,4.425 5.401,4.485C5.226,4.72 4.658,5.5 4.658,9.279C4.658,9.755 5.05,10.147 5.525,10.147L10.475,10.147C10.95,10.147 11.342,9.755 11.342,9.279C11.342,5.825 10.867,4.88 10.654,4.564Z"/>
            </g>
            <g transform="matrix(0.245526,0,0,0.179658,-414.497,2.54618)">
                <path d="M2279.53,397.479C2279.53,395.612 2280.63,394.098 2282,394.098C2283.37,394.098 2284.47,395.612 2284.47,397.479L2284.47,407.521C2284.47,409.388 2283.37,410.902 2282,410.902C2280.63,410.902 2279.53,409.388 2279.53,407.521L2279.53,397.479Z" style="fill:rgb(0,123,255);"/>
            </g>
            <g transform="matrix(0.245526,0,0,0.179658,-410.876,2.54618)">
                <path d="M2279.53,397.479C2279.53,395.612 2280.63,394.098 2282,394.098C2283.37,394.098 2284.47,395.612 2284.47,397.479L2284.47,407.521C2284.47,409.388 2283.37,410.902 2282,410.902C2280.63,410.902 2279.53,409.388 2279.53,407.521L2279.53,397.479Z" style="fill:rgb(0,123,255);"/>
            </g>
        </g>
    </g>
</svg>
