<?xml version="1.0" encoding="UTF-8" standalone="no"?>
<!DOCTYPE svg PUBLIC "-//W3C//DTD SVG 1.1//EN" "http://www.w3.org/Graphics/SVG/1.1/DTD/svg11.dtd">
<svg width="100%" height="100%" viewBox="0 0 638 270" version="1.1" xmlns="http://www.w3.org/2000/svg" xmlns:xlink="http://www.w3.org/1999/xlink" xml:space="preserve" xmlns:serif="http://www.serif.com/" style="fill-rule:evenodd;clip-rule:evenodd;stroke-linejoin:round;stroke-miterlimit:2;">
    <g transform="matrix(1,0,0,1,-2813.14,-205.681)">
        <g transform="matrix(1.30949,0,0,1.29724,-829.865,44.7283)">
            <g transform="matrix(0.389469,0,0,0.393145,2596.39,-515.796)">
                <path d="M640.306,1860.8L519.35,1860.8C508.002,1860.8 497.119,1856.29 489.095,1848.27C481.071,1840.24 476.564,1829.36 476.564,1818.01L476.564,1670.35C476.564,1659 481.071,1648.12 489.095,1640.1C497.119,1632.07 508.002,1627.56 519.35,1627.56L667.013,1627.56C678.361,1627.56 689.244,1632.07 697.268,1640.1C698.575,1641.4 699.789,1642.79 700.905,1644.24C702.022,1642.79 703.236,1641.4 704.543,1640.1C712.567,1632.07 723.45,1627.56 734.797,1627.56L882.461,1627.56C893.809,1627.56 904.691,1632.07 912.715,1640.1C914.023,1641.4 915.237,1642.79 916.353,1644.24C917.47,1642.79 918.684,1641.4 919.991,1640.1C928.015,1632.07 938.898,1627.56 950.245,1627.56L1097.91,1627.56C1109.26,1627.56 1120.14,1632.07 1128.16,1640.1C1129.47,1641.4 1130.68,1642.79 1131.8,1644.24C1132.92,1642.79 1134.13,1641.4 1135.44,1640.1C1143.46,1632.07 1154.35,1627.56 1165.69,1627.56L1313.36,1627.56C1324.7,1627.56 1335.59,1632.07 1343.61,1640.1C1351.63,1648.12 1356.14,1659 1356.14,1670.35L1356.14,1818.01C1356.14,1827.2 1353.19,1836.09 1347.8,1843.4L1468.76,1843.4C1480.1,1843.4 1490.99,1847.91 1499.01,1855.93C1500.32,1857.24 1501.53,1858.62 1502.65,1860.07C1503.76,1858.62 1504.98,1857.24 1506.29,1855.93C1514.31,1847.91 1525.19,1843.4 1536.54,1843.4L1684.2,1843.4C1695.55,1843.4 1706.43,1847.91 1714.46,1855.93C1722.48,1863.95 1726.99,1874.84 1726.99,1886.18L1726.99,2033.85C1726.99,2045.19 1722.48,2056.08 1714.46,2064.1C1706.43,2072.13 1695.55,2076.63 1684.2,2076.63L1536.54,2076.63C1525.19,2076.63 1514.31,2072.13 1506.29,2064.1C1504.98,2062.8 1503.76,2061.41 1502.65,2059.96C1501.53,2061.41 1500.32,2062.8 1499.01,2064.1C1490.99,2072.13 1480.1,2076.63 1468.76,2076.63L1321.09,2076.63C1309.74,2076.63 1298.86,2072.13 1290.84,2064.1C1289.53,2062.8 1288.32,2061.41 1287.2,2059.96C1286.08,2061.41 1284.87,2062.8 1283.56,2064.1C1275.54,2072.13 1264.65,2076.63 1253.31,2076.63L1105.64,2076.63C1094.3,2076.63 1083.41,2072.13 1075.39,2064.1C1074.08,2062.8 1072.87,2061.41 1071.75,2059.96C1070.63,2061.41 1069.42,2062.8 1068.11,2064.1C1060.09,2072.13 1049.21,2076.63 1037.86,2076.63L890.196,2076.63C878.848,2076.63 867.965,2072.13 859.941,2064.1C858.634,2062.8 857.42,2061.41 856.303,2059.96C855.187,2061.41 853.973,2062.8 852.666,2064.1C844.642,2072.13 833.759,2076.63 822.411,2076.63L674.748,2076.63C663.4,2076.63 652.517,2072.13 644.494,2064.1C636.47,2056.08 631.962,2045.19 631.962,2033.85L631.962,1886.18C631.962,1876.99 634.919,1868.11 640.306,1860.8Z" style="fill:white;"/>
                <g transform="matrix(0.615565,0,0,0.615565,286.014,634.318)">
                    <path d="M652,1683.06C652,1674.29 648.517,1665.88 642.317,1659.68C636.118,1653.48 627.709,1650 618.942,1650L379.058,1650C370.291,1650 361.882,1653.48 355.683,1659.68C349.483,1665.88 346,1674.29 346,1683.06L346,1922.94C346,1931.71 349.483,1940.12 355.683,1946.32C361.882,1952.52 370.291,1956 379.058,1956L618.942,1956C627.709,1956 636.118,1952.52 642.317,1946.32C648.517,1940.12 652,1931.71 652,1922.94L652,1683.06Z"/>
                </g>
                <g transform="matrix(0.615565,0,0,0.615565,501.462,634.318)">
                    <path d="M652,1683.06C652,1674.29 648.517,1665.88 642.317,1659.68C636.118,1653.48 627.709,1650 618.942,1650L379.058,1650C370.291,1650 361.882,1653.48 355.683,1659.68C349.483,1665.88 346,1674.29 346,1683.06L346,1922.94C346,1931.71 349.483,1940.12 355.683,1946.32C361.882,1952.52 370.291,1956 379.058,1956L618.942,1956C627.709,1956 636.118,1952.52 642.317,1946.32C648.517,1940.12 652,1931.71 652,1922.94L652,1683.06Z"/>
                </g>
                <g transform="matrix(0.615565,0,0,0.615565,716.91,634.318)">
                    <path d="M652,1683.06C652,1674.29 648.517,1665.88 642.317,1659.68C636.118,1653.48 627.709,1650 618.942,1650L379.058,1650C370.291,1650 361.882,1653.48 355.683,1659.68C349.483,1665.88 346,1674.29 346,1683.06L346,1922.94C346,1931.71 349.483,1940.12 355.683,1946.32C361.882,1952.52 370.291,1956 379.058,1956L618.942,1956C627.709,1956 636.118,1952.52 642.317,1946.32C648.517,1940.12 652,1931.71 652,1922.94L652,1683.06Z"/>
                </g>
                <g transform="matrix(0.615565,0,0,0.615565,932.358,634.318)">
                    <path d="M652,1683.06C652,1674.29 648.517,1665.88 642.317,1659.68C636.118,1653.48 627.709,1650 618.942,1650L379.058,1650C370.291,1650 361.882,1653.48 355.683,1659.68C349.483,1665.88 346,1674.29 346,1683.06L346,1922.94C346,1931.71 349.483,1940.12 355.683,1946.32C361.882,1952.52 370.291,1956 379.058,1956L618.942,1956C627.709,1956 636.118,1952.52 642.317,1946.32C648.517,1940.12 652,1931.71 652,1922.94L652,1683.06Z"/>
                </g>
                <g>
                    <g transform="matrix(0.615565,0,0,0.615565,441.413,850.152)">
                        <path d="M652,1683.06C652,1674.29 648.517,1665.88 642.317,1659.68C636.118,1653.48 627.709,1650 618.942,1650L379.058,1650C370.291,1650 361.882,1653.48 355.683,1659.68C349.483,1665.88 346,1674.29 346,1683.06L346,1922.94C346,1931.71 349.483,1940.12 355.683,1946.32C361.882,1952.52 370.291,1956 379.058,1956L618.942,1956C627.709,1956 636.118,1952.52 642.317,1946.32C648.517,1940.12 652,1931.71 652,1922.94L652,1683.06Z" style="fill:white;"/>
                        <path d="M652,1683.06L652,1922.94C652,1931.71 648.517,1940.12 642.317,1946.32C636.118,1952.52 627.709,1956 618.942,1956L379.058,1956C370.291,1956 361.882,1952.52 355.683,1946.32C349.483,1940.12 346,1931.71 346,1922.94L346,1683.06C346,1674.29 349.483,1665.88 355.683,1659.68C361.882,1653.48 370.291,1650 379.058,1650L618.942,1650C627.709,1650 636.118,1653.48 642.317,1659.68C648.517,1665.88 652,1674.29 652,1683.06ZM638.462,1683.06C638.462,1677.88 636.406,1672.92 632.745,1669.26C629.084,1665.59 624.119,1663.54 618.942,1663.54L379.058,1663.54C373.881,1663.54 368.916,1665.59 365.255,1669.26C361.594,1672.92 359.538,1677.88 359.538,1683.06L359.538,1922.94C359.538,1928.12 361.594,1933.08 365.255,1936.75C368.916,1940.41 373.881,1942.46 379.058,1942.46L618.942,1942.46C624.119,1942.46 629.084,1940.41 632.745,1936.75C636.406,1933.08 638.462,1928.12 638.462,1922.94L638.462,1683.06Z"/>
                    </g>
                    <g transform="matrix(0.615565,0,0,0.615565,656.86,850.152)">
                        <path d="M652,1683.06C652,1674.29 648.517,1665.88 642.317,1659.68C636.118,1653.48 627.709,1650 618.942,1650L379.058,1650C370.291,1650 361.882,1653.48 355.683,1659.68C349.483,1665.88 346,1674.29 346,1683.06L346,1922.94C346,1931.71 349.483,1940.12 355.683,1946.32C361.882,1952.52 370.291,1956 379.058,1956L618.942,1956C627.709,1956 636.118,1952.52 642.317,1946.32C648.517,1940.12 652,1931.71 652,1922.94L652,1683.06Z" style="fill:white;"/>
                        <path d="M652,1683.06L652,1922.94C652,1931.71 648.517,1940.12 642.317,1946.32C636.118,1952.52 627.709,1956 618.942,1956L379.058,1956C370.291,1956 361.882,1952.52 355.683,1946.32C349.483,1940.12 346,1931.71 346,1922.94L346,1683.06C346,1674.29 349.483,1665.88 355.683,1659.68C361.882,1653.48 370.291,1650 379.058,1650L618.942,1650C627.709,1650 636.118,1653.48 642.317,1659.68C648.517,1665.88 652,1674.29 652,1683.06ZM638.462,1683.06C638.462,1677.88 636.406,1672.92 632.745,1669.26C629.084,1665.59 624.119,1663.54 618.942,1663.54L379.058,1663.54C373.881,1663.54 368.916,1665.59 365.255,1669.26C361.594,1672.92 359.538,1677.88 359.538,1683.06L359.538,1922.94C359.538,1928.12 361.594,1933.08 365.255,1936.75C368.916,1940.41 373.881,1942.46 379.058,1942.46L618.942,1942.46C624.119,1942.46 629.084,1940.41 632.745,1936.75C636.406,1933.08 638.462,1928.12 638.462,1922.94L638.462,1683.06Z"/>
                    </g>
                    <g transform="matrix(0.615565,0,0,0.615565,872.308,850.152)">
                        <path d="M652,1683.06C652,1674.29 648.517,1665.88 642.317,1659.68C636.118,1653.48 627.709,1650 618.942,1650L379.058,1650C370.291,1650 361.882,1653.48 355.683,1659.68C349.483,1665.88 346,1674.29 346,1683.06L346,1922.94C346,1931.71 349.483,1940.12 355.683,1946.32C361.882,1952.52 370.291,1956 379.058,1956L618.942,1956C627.709,1956 636.118,1952.52 642.317,1946.32C648.517,1940.12 652,1931.71 652,1922.94L652,1683.06Z" style="fill:white;"/>
                        <path d="M652,1683.06L652,1922.94C652,1931.71 648.517,1940.12 642.317,1946.32C636.118,1952.52 627.709,1956 618.942,1956L379.058,1956C370.291,1956 361.882,1952.52 355.683,1946.32C349.483,1940.12 346,1931.71 346,1922.94L346,1683.06C346,1674.29 349.483,1665.88 355.683,1659.68C361.882,1653.48 370.291,1650 379.058,1650L618.942,1650C627.709,1650 636.118,1653.48 642.317,1659.68C648.517,1665.88 652,1674.29 652,1683.06ZM638.462,1683.06C638.462,1677.88 636.406,1672.92 632.745,1669.26C629.084,1665.59 624.119,1663.54 618.942,1663.54L379.058,1663.54C373.881,1663.54 368.916,1665.59 365.255,1669.26C361.594,1672.92 359.538,1677.88 359.538,1683.06L359.538,1922.94C359.538,1928.12 361.594,1933.08 365.255,1936.75C368.916,1940.41 373.881,1942.46 379.058,1942.46L618.942,1942.46C624.119,1942.46 629.084,1940.41 632.745,1936.75C636.406,1933.08 638.462,1928.12 638.462,1922.94L638.462,1683.06Z"/>
                    </g>
                    <g transform="matrix(0.615565,0,0,0.615565,1087.76,850.152)">
                        <path d="M652,1683.06C652,1674.29 648.517,1665.88 642.317,1659.68C636.118,1653.48 627.709,1650 618.942,1650L379.058,1650C370.291,1650 361.882,1653.48 355.683,1659.68C349.483,1665.88 346,1674.29 346,1683.06L346,1922.94C346,1931.71 349.483,1940.12 355.683,1946.32C361.882,1952.52 370.291,1956 379.058,1956L618.942,1956C627.709,1956 636.118,1952.52 642.317,1946.32C648.517,1940.12 652,1931.71 652,1922.94L652,1683.06Z" style="fill:white;"/>
                        <path d="M652,1683.06L652,1922.94C652,1931.71 648.517,1940.12 642.317,1946.32C636.118,1952.52 627.709,1956 618.942,1956L379.058,1956C370.291,1956 361.882,1952.52 355.683,1946.32C349.483,1940.12 346,1931.71 346,1922.94L346,1683.06C346,1674.29 349.483,1665.88 355.683,1659.68C361.882,1653.48 370.291,1650 379.058,1650L618.942,1650C627.709,1650 636.118,1653.48 642.317,1659.68C648.517,1665.88 652,1674.29 652,1683.06ZM638.462,1683.06C638.462,1677.88 636.406,1672.92 632.745,1669.26C629.084,1665.59 624.119,1663.54 618.942,1663.54L379.058,1663.54C373.881,1663.54 368.916,1665.59 365.255,1669.26C361.594,1672.92 359.538,1677.88 359.538,1683.06L359.538,1922.94C359.538,1928.12 361.594,1933.08 365.255,1936.75C368.916,1940.41 373.881,1942.46 379.058,1942.46L618.942,1942.46C624.119,1942.46 629.084,1940.41 632.745,1936.75C636.406,1933.08 638.462,1928.12 638.462,1922.94L638.462,1683.06Z"/>
                    </g>
                    <g transform="matrix(0.615565,0,0,0.615565,1303.2,850.152)">
                        <path d="M652,1683.06C652,1674.29 648.517,1665.88 642.317,1659.68C636.118,1653.48 627.709,1650 618.942,1650L379.058,1650C370.291,1650 361.882,1653.48 355.683,1659.68C349.483,1665.88 346,1674.29 346,1683.06L346,1922.94C346,1931.71 349.483,1940.12 355.683,1946.32C361.882,1952.52 370.291,1956 379.058,1956L618.942,1956C627.709,1956 636.118,1952.52 642.317,1946.32C648.517,1940.12 652,1931.71 652,1922.94L652,1683.06Z" style="fill:white;"/>
                        <path d="M652,1683.06L652,1922.94C652,1931.71 648.517,1940.12 642.317,1946.32C636.118,1952.52 627.709,1956 618.942,1956L379.058,1956C370.291,1956 361.882,1952.52 355.683,1946.32C349.483,1940.12 346,1931.71 346,1922.94L346,1683.06C346,1674.29 349.483,1665.88 355.683,1659.68C361.882,1653.48 370.291,1650 379.058,1650L618.942,1650C627.709,1650 636.118,1653.48 642.317,1659.68C648.517,1665.88 652,1674.29 652,1683.06ZM638.462,1683.06C638.462,1677.88 636.406,1672.92 632.745,1669.26C629.084,1665.59 624.119,1663.54 618.942,1663.54L379.058,1663.54C373.881,1663.54 368.916,1665.59 365.255,1669.26C361.594,1672.92 359.538,1677.88 359.538,1683.06L359.538,1922.94C359.538,1928.12 361.594,1933.08 365.255,1936.75C368.916,1940.41 373.881,1942.46 379.058,1942.46L618.942,1942.46C624.119,1942.46 629.084,1940.41 632.745,1936.75C636.406,1933.08 638.462,1928.12 638.462,1922.94L638.462,1683.06Z"/>
                    </g>
                </g>
                <g transform="matrix(0.5,0,0,0.5,271.086,838.326)">
                    <path d="M593.719,1839.71C584.344,1839.71 575.9,1838.11 568.387,1834.89C560.874,1831.68 554.934,1827.06 550.567,1821.03C546.201,1814.99 543.953,1807.86 543.825,1799.64L572.721,1799.64C573.106,1805.16 575.065,1809.53 578.597,1812.74C582.128,1815.95 586.977,1817.56 593.141,1817.56C599.434,1817.56 604.379,1816.05 607.975,1813.03C611.571,1810.01 613.369,1806.06 613.369,1801.18C613.369,1797.2 612.149,1793.93 609.708,1791.36C607.268,1788.79 604.218,1786.77 600.558,1785.29C596.898,1783.81 591.857,1782.18 585.435,1780.38C576.702,1777.81 569.607,1775.27 564.149,1772.77C558.69,1770.26 554.003,1766.48 550.086,1761.4C546.169,1756.33 544.21,1749.56 544.21,1741.08C544.21,1733.12 546.201,1726.18 550.182,1720.27C554.163,1714.37 559.75,1709.84 566.942,1706.69C574.134,1703.55 582.353,1701.97 591.6,1701.97C605.47,1701.97 616.74,1705.34 625.409,1712.09C634.078,1718.83 638.862,1728.24 639.761,1740.31L610.094,1740.31C609.837,1735.68 607.878,1731.86 604.218,1728.85C600.558,1725.83 595.71,1724.32 589.674,1724.32C584.408,1724.32 580.202,1725.67 577.056,1728.36C573.909,1731.06 572.336,1734.98 572.336,1740.12C572.336,1743.71 573.524,1746.7 575.9,1749.07C578.276,1751.45 581.229,1753.38 584.761,1754.85C588.293,1756.33 593.27,1758.03 599.691,1759.96C608.424,1762.53 615.552,1765.1 621.074,1767.66C626.597,1770.23 631.349,1774.09 635.33,1779.22C639.311,1784.36 641.302,1791.1 641.302,1799.45C641.302,1806.64 639.44,1813.32 635.715,1819.48C631.991,1825.65 626.532,1830.56 619.34,1834.22C612.149,1837.88 603.608,1839.71 593.719,1839.71Z" style="fill:white;fill-rule:nonzero;"/>
                </g>
                <g transform="matrix(0.5,0,0,0.5,426.484,1054.16)">
                    <path d="M668.079,1703.9L618.763,1838.36L586.013,1838.36L536.697,1703.9L565.593,1703.9L602.581,1810.82L639.375,1703.9L668.079,1703.9Z" style="fill-rule:nonzero;"/>
                </g>
                <g transform="matrix(0.5,0,0,0.5,641.484,1054.16)">
                    <path d="M574.262,1725.67L574.262,1759.38L619.533,1759.38L619.533,1780.76L574.262,1780.76L574.262,1816.4L625.312,1816.4L625.312,1838.36L547.292,1838.36L547.292,1703.71L625.312,1703.71L625.312,1725.67L574.262,1725.67Z" style="fill-rule:nonzero;"/>
                </g>
                <g transform="matrix(0.5,0,0,0.5,856.932,1054.16)">
                    <path d="M574.262,1816.98L618.57,1816.98L618.57,1838.36L547.292,1838.36L547.292,1703.9L574.262,1703.9L574.262,1816.98Z" style="fill-rule:nonzero;"/>
                </g>
                <g transform="matrix(0.5,0,0,0.5,1072.38,1054.16)">
                    <path d="M609.708,1839.71C597.122,1839.71 585.564,1836.76 575.033,1830.85C564.502,1824.94 556.154,1816.76 549.989,1806.29C543.825,1795.82 540.742,1783.97 540.742,1770.75C540.742,1757.65 543.825,1745.86 549.989,1735.4C556.154,1724.93 564.502,1716.74 575.033,1710.83C585.564,1704.93 597.122,1701.97 609.708,1701.97C622.423,1701.97 634.013,1704.93 644.48,1710.83C654.947,1716.74 663.231,1724.93 669.331,1735.4C675.431,1745.86 678.482,1757.65 678.482,1770.75C678.482,1783.97 675.431,1795.82 669.331,1806.29C663.231,1816.76 654.915,1824.94 644.384,1830.85C633.853,1836.76 622.294,1839.71 609.708,1839.71ZM609.708,1815.63C617.799,1815.63 624.927,1813.8 631.092,1810.14C637.256,1806.48 642.072,1801.25 645.54,1794.44C649.007,1787.63 650.741,1779.74 650.741,1770.75C650.741,1761.76 649.007,1753.89 645.54,1747.15C642.072,1740.4 637.256,1735.24 631.092,1731.64C624.927,1728.04 617.799,1726.25 609.708,1726.25C601.617,1726.25 594.458,1728.04 588.229,1731.64C582,1735.24 577.152,1740.4 573.684,1747.15C570.217,1753.89 568.483,1761.76 568.483,1770.75C568.483,1779.74 570.217,1787.63 573.684,1794.44C577.152,1801.25 582,1806.48 588.229,1810.14C594.458,1813.8 601.617,1815.63 609.708,1815.63Z" style="fill-rule:nonzero;"/>
                </g>
                <g transform="matrix(0.5,0,0,0.5,1287.83,1054.16)">
                    <path d="M574.84,1815.63L635.33,1815.63L635.33,1838.36L543.632,1838.36L543.632,1817.56L603.736,1726.63L543.632,1726.63L543.632,1703.9L635.33,1703.9L635.33,1724.7L574.84,1815.63Z" style="fill-rule:nonzero;"/>
                </g>
                <g transform="matrix(0.5,0,0,0.5,486.534,838.326)">
                    <path d="M574.262,1725.67L574.262,1759.38L619.533,1759.38L619.533,1780.76L574.262,1780.76L574.262,1816.4L625.312,1816.4L625.312,1838.36L547.292,1838.36L547.292,1703.71L625.312,1703.71L625.312,1725.67L574.262,1725.67Z" style="fill:white;fill-rule:nonzero;"/>
                </g>
                <g transform="matrix(0.5,0,0,0.5,701.981,838.326)">
                    <path d="M625.698,1703.9L625.698,1798.29C625.698,1811.39 621.909,1821.57 614.332,1828.83C606.755,1836.08 596.609,1839.71 583.894,1839.71C571.052,1839.71 560.681,1835.99 552.783,1828.54C544.884,1821.09 540.935,1810.69 540.935,1797.33L567.905,1797.33C568.033,1803.11 569.414,1807.6 572.047,1810.82C574.68,1814.03 578.5,1815.63 583.509,1815.63C588.389,1815.63 592.114,1814.09 594.682,1811.01C597.251,1807.92 598.535,1803.69 598.535,1798.29L598.535,1703.9L625.698,1703.9Z" style="fill:white;fill-rule:nonzero;"/>
                </g>
                <g transform="matrix(0.5,0,0,0.5,917.429,838.326)">
                    <path d="M629.743,1812.74L576.189,1812.74L567.327,1838.36L539.009,1838.36L587.362,1703.71L618.763,1703.71L667.116,1838.36L638.605,1838.36L629.743,1812.74ZM622.423,1791.17L602.966,1734.91L583.509,1791.17L622.423,1791.17Z" style="fill:white;fill-rule:nonzero;"/>
                </g>
            </g>
        </g>
        <g transform="matrix(1.30949,0,0,1.29724,-829.865,44.7283)">
            <g transform="matrix(0.801843,0,0,0.809413,708.853,-763.496)">
                <g transform="matrix(33.7838,0,0,33.7838,3182.25,1349)">
                </g>
                <text x="2821px" y="1349px" style="font-family:'OpenSans-MediumItalic', 'Open Sans';font-weight:500;font-style:italic;font-size:33.784px;fill:rgb(0,123,255);">TYPE FAST, THINK LATER</text>
            </g>
        </g>
        <g transform="matrix(1.30949,0,0,1.29724,-829.865,44.7283)">
            <g transform="matrix(3.96724,0,0,4.00469,2577.72,-127.55)">
                <g transform="matrix(1.08775,0,0,1.15574,139.447,65.0345)">
                    <path d="M16,1.864C16,1.37 15.791,0.896 15.42,0.546C15.049,0.197 14.545,0 14.02,0L0.98,0C0.455,0 -0.049,0.197 -0.42,0.546C-0.791,0.896 -1,1.37 -1,1.864L-1,14.136C-1,14.631 -0.791,15.105 -0.42,15.454C-0.049,15.804 0.455,16 0.98,16L14.02,16C14.545,16 15.049,15.804 15.42,15.454C15.791,15.105 16,14.631 16,14.136L16,1.864Z" style="fill:white;"/>
                    <path d="M16,1.864L16,14.136C16,14.631 15.791,15.105 15.42,15.454C15.049,15.804 14.545,16 14.02,16L0.98,16C0.455,16 -0.049,15.804 -0.42,15.454C-0.791,15.105 -1,14.631 -1,14.136L-1,1.864C-1,1.37 -0.791,0.896 -0.42,0.546C-0.049,0.197 0.455,0 0.98,0L14.02,0C14.545,0 15.049,0.197 15.42,0.546C15.791,0.896 16,1.37 16,1.864ZM15.281,1.864C15.281,1.549 15.147,1.248 14.911,1.025C14.675,0.803 14.354,0.677 14.02,0.677L0.98,0.677C0.646,0.677 0.325,0.803 0.089,1.025C-0.147,1.248 -0.281,1.549 -0.281,1.864L-0.281,14.136C-0.281,14.451 -0.148,14.753 0.089,14.975L0.089,14.976C0.325,15.198 0.646,15.323 0.98,15.323L14.02,15.323C14.354,15.323 14.675,15.198 14.911,14.976L14.911,14.975C15.148,14.753 15.281,14.451 15.281,14.136L15.281,1.864Z" style="fill:url(#_Linear1);"/>
                </g>
                <g transform="matrix(1.42285,0,0,1.42285,136.222,63.9168)">
                    <path d="M5.525,10.976C4.594,10.976 3.828,10.21 3.828,9.279C3.828,5.681 4.307,4.56 4.738,3.986C5.022,3.606 5.542,3.482 5.966,3.694C5.967,3.694 5.967,3.694 5.968,3.695C6.327,3.88 6.656,4.118 6.942,4.402C6.982,4.441 7.04,4.456 7.094,4.44C7.7,4.264 8.34,4.252 8.951,4.404C9.002,4.417 9.057,4.402 9.095,4.365C9.373,4.098 9.688,3.872 10.032,3.695C10.032,3.695 10.032,3.695 10.033,3.694C10.457,3.482 10.978,3.606 11.262,3.986C11.693,4.56 12.172,5.681 12.172,9.279C12.172,10.21 11.406,10.976 10.475,10.976L5.525,10.976ZM10.654,4.564C10.608,4.496 10.517,4.475 10.447,4.517C10.256,4.631 9.909,4.87 9.641,5.208C9.521,5.363 9.311,5.418 9.129,5.34C8.463,5.068 7.714,5.069 7.048,5.341C6.867,5.418 6.657,5.363 6.537,5.207C6.154,4.729 5.612,4.448 5.594,4.439C5.527,4.405 5.446,4.425 5.401,4.485C5.226,4.72 4.658,5.5 4.658,9.279C4.658,9.755 5.05,10.147 5.525,10.147L10.475,10.147C10.95,10.147 11.342,9.755 11.342,9.279C11.342,5.825 10.867,4.88 10.654,4.564Z"/>
                </g>
                <g transform="matrix(0.245526,0,0,0.179658,-414.497,2.54618)">
                    <path d="M2279.53,397.479C2279.53,395.612 2280.63,394.098 2282,394.098C2283.37,394.098 2284.47,395.612 2284.47,397.479L2284.47,407.521C2284.47,409.388 2283.37,410.902 2282,410.902C2280.63,410.902 2279.53,409.388 2279.53,407.521L2279.53,397.479Z"/>
                </g>
                <g transform="matrix(0.245526,0,0,0.179658,-410.876,2.54618)">
                    <path d="M2279.53,397.479C2279.53,395.612 2280.63,394.098 2282,394.098C2283.37,394.098 2284.47,395.612 2284.47,397.479L2284.47,407.521C2284.47,409.388 2283.37,410.902 2282,410.902C2280.63,410.902 2279.53,409.388 2279.53,407.521L2279.53,397.479Z"/>
                </g>
            </g>
        </g>
    </g>
    <defs>
        <linearGradient id="_Linear1" x1="0" y1="0" x2="1" y2="0" gradientUnits="userSpaceOnUse" gradientTransform="matrix(17,-16,17,16,-1,16)"><stop offset="0" style="stop-color:rgb(255,0,0);stop-opacity:1"/><stop offset="0.51" style="stop-color:rgb(255,230,1);stop-opacity:1"/><stop offset="1" style="stop-color:rgb(0,123,255);stop-opacity:1"/></linearGradient>
    </defs>
</svg>
