<?xml version="1.0" encoding="UTF-8" standalone="no"?>
<!DOCTYPE svg PUBLIC "-//W3C//DTD SVG 1.1//EN" "http://www.w3.org/Graphics/SVG/1.1/DTD/svg11.dtd">
<svg width="100%" height="100%" viewBox="0 0 638 270" version="1.1" xmlns="http://www.w3.org/2000/svg" xmlns:xlink="http://www.w3.org/1999/xlink" xml:space="preserve" xmlns:serif="http://www.serif.com/" style="fill-rule:evenodd;clip-rule:evenodd;stroke-linejoin:round;stroke-miterlimit:2;">
    <g transform="matrix(1,0,0,1,-1804.75,-165.181)">
        <g transform="matrix(0.510006,0,0,0.510006,1561.7,-664.885)">
            <path d="M640.306,1860.8L519.35,1860.8C508.002,1860.8 497.119,1856.29 489.095,1848.27C481.071,1840.24 476.564,1829.36 476.564,1818.01L476.564,1670.35C476.564,1659 481.071,1648.12 489.095,1640.1C497.119,1632.07 508.002,1627.56 519.35,1627.56L667.013,1627.56C678.361,1627.56 689.244,1632.07 697.268,1640.1C698.575,1641.4 699.789,1642.79 700.905,1644.24C702.022,1642.79 703.236,1641.4 704.543,1640.1C712.567,1632.07 723.45,1627.56 734.797,1627.56L882.461,1627.56C893.809,1627.56 904.691,1632.07 912.715,1640.1C914.023,1641.4 915.237,1642.79 916.353,1644.24C917.47,1642.79 918.684,1641.4 919.991,1640.1C928.015,1632.07 938.898,1627.56 950.245,1627.56L1097.91,1627.56C1109.26,1627.56 1120.14,1632.07 1128.16,1640.1C1129.47,1641.4 1130.68,1642.79 1131.8,1644.24C1132.92,1642.79 1134.13,1641.4 1135.44,1640.1C1143.46,1632.07 1154.35,1627.56 1165.69,1627.56L1313.36,1627.56C1324.7,1627.56 1335.59,1632.07 1343.61,1640.1C1351.63,1648.12 1356.14,1659 1356.14,1670.35L1356.14,1818.01C1356.14,1827.2 1353.19,1836.09 1347.8,1843.4L1468.76,1843.4C1480.1,1843.4 1490.99,1847.91 1499.01,1855.93C1500.32,1857.24 1501.53,1858.62 1502.65,1860.07C1503.76,1858.62 1504.98,1857.24 1506.29,1855.93C1514.31,1847.91 1525.19,1843.4 1536.54,1843.4L1684.2,1843.4C1695.55,1843.4 1706.43,1847.91 1714.46,1855.93C1722.48,1863.95 1726.99,1874.84 1726.99,1886.18L1726.99,2033.85C1726.99,2045.19 1722.48,2056.08 1714.46,2064.1C1706.43,2072.13 1695.55,2076.63 1684.2,2076.63L1536.54,2076.63C1525.19,2076.63 1514.31,2072.13 1506.29,2064.1C1504.98,2062.8 1503.76,2061.41 1502.65,2059.96C1501.53,2061.41 1500.32,2062.8 1499.01,2064.1C1490.99,2072.13 1480.1,2076.63 1468.76,2076.63L1321.09,2076.63C1309.74,2076.63 1298.86,2072.13 1290.84,2064.1C1289.53,2062.8 1288.32,2061.41 1287.2,2059.96C1286.08,2061.41 1284.87,2062.8 1283.56,2064.1C1275.54,2072.13 1264.65,2076.63 1253.31,2076.63L1105.64,2076.63C1094.3,2076.63 1083.41,2072.13 1075.39,2064.1C1074.08,2062.8 1072.87,2061.41 1071.75,2059.96C1070.63,2061.41 1069.42,2062.8 1068.11,2064.1C1060.09,2072.13 1049.21,2076.63 1037.86,2076.63L890.196,2076.63C878.848,2076.63 867.965,2072.13 859.941,2064.1C858.634,2062.8 857.42,2061.41 856.303,2059.96C855.187,2061.41 853.973,2062.8 852.666,2064.1C844.642,2072.13 833.759,2076.63 822.411,2076.63L674.748,2076.63C663.4,2076.63 652.517,2072.13 644.494,2064.1C636.47,2056.08 631.962,2045.19 631.962,2033.85L631.962,1886.18C631.962,1876.99 634.919,1868.11 640.306,1860.8Z" style="fill:white;"/>
            <g transform="matrix(0.615565,0,0,0.615565,286.014,634.318)">
                <path d="M652,1683.06C652,1674.29 648.517,1665.88 642.317,1659.68C636.118,1653.48 627.709,1650 618.942,1650L379.058,1650C370.291,1650 361.882,1653.48 355.683,1659.68C349.483,1665.88 346,1674.29 346,1683.06L346,1922.94C346,1931.71 349.483,1940.12 355.683,1946.32C361.882,1952.52 370.291,1956 379.058,1956L618.942,1956C627.709,1956 636.118,1952.52 642.317,1946.32C648.517,1940.12 652,1931.71 652,1922.94L652,1683.06Z"/>
            </g>
            <g transform="matrix(0.615565,0,0,0.615565,501.462,634.318)">
                <path d="M652,1683.06C652,1674.29 648.517,1665.88 642.317,1659.68C636.118,1653.48 627.709,1650 618.942,1650L379.058,1650C370.291,1650 361.882,1653.48 355.683,1659.68C349.483,1665.88 346,1674.29 346,1683.06L346,1922.94C346,1931.71 349.483,1940.12 355.683,1946.32C361.882,1952.52 370.291,1956 379.058,1956L618.942,1956C627.709,1956 636.118,1952.52 642.317,1946.32C648.517,1940.12 652,1931.71 652,1922.94L652,1683.06Z"/>
            </g>
            <g transform="matrix(0.615565,0,0,0.615565,716.91,634.318)">
                <path d="M652,1683.06C652,1674.29 648.517,1665.88 642.317,1659.68C636.118,1653.48 627.709,1650 618.942,1650L379.058,1650C370.291,1650 361.882,1653.48 355.683,1659.68C349.483,1665.88 346,1674.29 346,1683.06L346,1922.94C346,1931.71 349.483,1940.12 355.683,1946.32C361.882,1952.52 370.291,1956 379.058,1956L618.942,1956C627.709,1956 636.118,1952.52 642.317,1946.32C648.517,1940.12 652,1931.71 652,1922.94L652,1683.06Z"/>
            </g>
            <g transform="matrix(0.615565,0,0,0.615565,932.358,634.318)">
                <path d="M652,1683.06C652,1674.29 648.517,1665.88 642.317,1659.68C636.118,1653.48 627.709,1650 618.942,1650L379.058,1650C370.291,1650 361.882,1653.48 355.683,1659.68C349.483,1665.88 346,1674.29 346,1683.06L346,1922.94C346,1931.71 349.483,1940.12 355.683,1946.32C361.882,1952.52 370.291,1956 379.058,1956L618.942,1956C627.709,1956 636.118,1952.52 642.317,1946.32C648.517,1940.12 652,1931.71 652,1922.94L652,1683.06Z"/>
            </g>
            <g>
                <g transform="matrix(0.615565,0,0,0.615565,441.413,850.152)">
                    <path d="M652,1683.06C652,1674.29 648.517,1665.88 642.317,1659.68C636.118,1653.48 627.709,1650 618.942,1650L379.058,1650C370.291,1650 361.882,1653.48 355.683,1659.68C349.483,1665.88 346,1674.29 346,1683.06L346,1922.94C346,1931.71 349.483,1940.12 355.683,1946.32C361.882,1952.52 370.291,1956 379.058,1956L618.942,1956C627.709,1956 636.118,1952.52 642.317,1946.32C648.517,1940.12 652,1931.71 652,1922.94L652,1683.06Z" style="fill:white;"/>
                    <path d="M652,1683.06L652,1922.94C652,1931.71 648.517,1940.12 642.317,1946.32C636.118,1952.52 627.709,1956 618.942,1956L379.058,1956C370.291,1956 361.882,1952.52 355.683,1946.32C349.483,1940.12 346,1931.71 346,1922.94L346,1683.06C346,1674.29 349.483,1665.88 355.683,1659.68C361.882,1653.48 370.291,1650 379.058,1650L618.942,1650C627.709,1650 636.118,1653.48 642.317,1659.68C648.517,1665.88 652,1674.29 652,1683.06ZM638.462,1683.06C638.462,1677.88 636.406,1672.92 632.745,1669.26C629.084,1665.59 624.119,1663.54 618.942,1663.54L379.058,1663.54C373.881,1663.54 368.916,1665.59 365.255,1669.26C361.594,1672.92 359.538,1677.88 359.538,1683.06L359.538,1922.94C359.538,1928.12 361.594,1933.08 365.255,1936.75C368.916,1940.41 373.881,1942.46 379.058,1942.46L618.942,1942.46C624.119,1942.46 629.084,1940.41 632.745,1936.75C636.406,1933.08 638.462,1928.12 638.462,1922.94L638.462,1683.06Z"/>
                </g>
                <g transform="matrix(0.615565,0,0,0.615565,656.86,850.152)">
                    <path d="M652,1683.06C652,1674.29 648.517,1665.88 642.317,1659.68C636.118,1653.48 627.709,1650 618.942,1650L379.058,1650C370.291,1650 361.882,1653.48 355.683,1659.68C349.483,1665.88 346,1674.29 346,1683.06L346,1922.94C346,1931.71 349.483,1940.12 355.683,1946.32C361.882,1952.52 370.291,1956 379.058,1956L618.942,1956C627.709,1956 636.118,1952.52 642.317,1946.32C648.517,1940.12 652,1931.71 652,1922.94L652,1683.06Z" style="fill:white;"/>
                    <path d="M652,1683.06L652,1922.94C652,1931.71 648.517,1940.12 642.317,1946.32C636.118,1952.52 627.709,1956 618.942,1956L379.058,1956C370.291,1956 361.882,1952.52 355.683,1946.32C349.483,1940.12 346,1931.71 346,1922.94L346,1683.06C346,1674.29 349.483,1665.88 355.683,1659.68C361.882,1653.48 370.291,1650 379.058,1650L618.942,1650C627.709,1650 636.118,1653.48 642.317,1659.68C648.517,1665.88 652,1674.29 652,1683.06ZM638.462,1683.06C638.462,1677.88 636.406,1672.92 632.745,1669.26C629.084,1665.59 624.119,1663.54 618.942,1663.54L379.058,1663.54C373.881,1663.54 368.916,1665.59 365.255,1669.26C361.594,1672.92 359.538,1677.88 359.538,1683.06L359.538,1922.94C359.538,1928.12 361.594,1933.08 365.255,1936.75C368.916,1940.41 373.881,1942.46 379.058,1942.46L618.942,1942.46C624.119,1942.46 629.084,1940.41 632.745,1936.75C636.406,1933.08 638.462,1928.12 638.462,1922.94L638.462,1683.06Z"/>
                </g>
                <g transform="matrix(0.615565,0,0,0.615565,872.308,850.152)">
                    <path d="M652,1683.06C652,1674.29 648.517,1665.88 642.317,1659.68C636.118,1653.48 627.709,1650 618.942,1650L379.058,1650C370.291,1650 361.882,1653.48 355.683,1659.68C349.483,1665.88 346,1674.29 346,1683.06L346,1922.94C346,1931.71 349.483,1940.12 355.683,1946.32C361.882,1952.52 370.291,1956 379.058,1956L618.942,1956C627.709,1956 636.118,1952.52 642.317,1946.32C648.517,1940.12 652,1931.71 652,1922.94L652,1683.06Z" style="fill:white;"/>
                    <path d="M652,1683.06L652,1922.94C652,1931.71 648.517,1940.12 642.317,1946.32C636.118,1952.52 627.709,1956 618.942,1956L379.058,1956C370.291,1956 361.882,1952.52 355.683,1946.32C349.483,1940.12 346,1931.71 346,1922.94L346,1683.06C346,1674.29 349.483,1665.88 355.683,1659.68C361.882,1653.48 370.291,1650 379.058,1650L618.942,1650C627.709,1650 636.118,1653.48 642.317,1659.68C648.517,1665.88 652,1674.29 652,1683.06ZM638.462,1683.06C638.462,1677.88 636.406,1672.92 632.745,1669.26C629.084,1665.59 624.119,1663.54 618.942,1663.54L379.058,1663.54C373.881,1663.54 368.916,1665.59 365.255,1669.26C361.594,1672.92 359.538,1677.88 359.538,1683.06L359.538,1922.94C359.538,1928.12 361.594,1933.08 365.255,1936.75C368.916,1940.41 373.881,1942.46 379.058,1942.46L618.942,1942.46C624.119,1942.46 629.084,1940.41 632.745,1936.75C636.406,1933.08 638.462,1928.12 638.462,1922.94L638.462,1683.06Z"/>
                </g>
                <g transform="matrix(0.615565,0,0,0.615565,1087.76,850.152)">
                    <path d="M652,1683.06C652,1674.29 648.517,1665.88 642.317,1659.68C636.118,1653.48 627.709,1650 618.942,1650L379.058,1650C370.291,1650 361.882,1653.48 355.683,1659.68C349.483,1665.88 346,1674.29 346,1683.06L346,1922.94C346,1931.71 349.483,1940.12 355.683,1946.32C361.882,1952.52 370.291,1956 379.058,1956L618.942,1956C627.709,1956 636.118,1952.52 642.317,1946.32C648.517,1940.12 652,1931.71 652,1922.94L652,1683.06Z" style="fill:white;"/>
                    <path d="M652,1683.06L652,1922.94C652,1931.71 648.517,1940.12 642.317,1946.32C636.118,1952.52 627.709,1956 618.942,1956L379.058,1956C370.291,1956 361.882,1952.52 355.683,1946.32C349.483,1940.12 346,1931.71 346,1922.94L346,1683.06C346,1674.29 349.483,1665.88 355.683,1659.68C361.882,1653.48 370.291,1650 379.058,1650L618.942,1650C627.709,1650 636.118,1653.48 642.317,1659.68C648.517,1665.88 652,1674.29 652,1683.06ZM638.462,1683.06C638.462,1677.88 636.406,1672.92 632.745,1669.26C629.084,1665.59 624.119,1663.54 618.942,1663.54L379.058,1663.54C373.881,1663.54 368.916,1665.59 365.255,1669.26C361.594,1672.92 359.538,1677.88 359.538,1683.06L359.538,1922.94C359.538,1928.12 361.594,1933.08 365.255,1936.75C368.916,1940.41 373.881,1942.46 379.058,1942.46L618.942,1942.46C624.119,1942.46 629.084,1940.41 632.745,1936.75C636.406,1933.08 638.462,1928.12 638.462,1922.94L638.462,1683.06Z"/>
                </g>
                <g transform="matrix(0.615565,0,0,0.615565,1303.2,850.152)">
                    <path d="M652,1683.06C652,1674.29 648.517,1665.88 642.317,1659.68C636.118,1653.48 627.709,1650 618.942,1650L379.058,1650C370.291,1650 361.882,1653.48 355.683,1659.68C349.483,1665.88 346,1674.29 346,1683.06L346,1922.94C346,1931.71 349.483,1940.12 355.683,1946.32C361.882,1952.52 370.291,1956 379.058,1956L618.942,1956C627.709,1956 636.118,1952.52 642.317,1946.32C648.517,1940.12 652,1931.71 652,1922.94L652,1683.06Z" style="fill:white;"/>
                    <path d="M652,1683.06L652,1922.94C652,1931.71 648.517,1940.12 642.317,1946.32C636.118,1952.52 627.709,1956 618.942,1956L379.058,1956C370.291,1956 361.882,1952.52 355.683,1946.32C349.483,1940.12 346,1931.71 346,1922.94L346,1683.06C346,1674.29 349.483,1665.88 355.683,1659.68C361.882,1653.48 370.291,1650 379.058,1650L618.942,1650C627.709,1650 636.118,1653.48 642.317,1659.68C648.517,1665.88 652,1674.29 652,1683.06ZM638.462,1683.06C638.462,1677.88 636.406,1672.92 632.745,1669.26C629.084,1665.59 624.119,1663.54 618.942,1663.54L379.058,1663.54C373.881,1663.54 368.916,1665.59 365.255,1669.26C361.594,1672.92 359.538,1677.88 359.538,1683.06L359.538,1922.94C359.538,1928.12 361.594,1933.08 365.255,1936.75C368.916,1940.41 373.881,1942.46 379.058,1942.46L618.942,1942.46C624.119,1942.46 629.084,1940.41 632.745,1936.75C636.406,1933.08 638.462,1928.12 638.462,1922.94L638.462,1683.06Z"/>
                </g>
            </g>
            <g transform="matrix(0.5,0,0,0.5,271.086,838.326)">
                <path d="M593.719,1839.71C584.344,1839.71 575.9,1838.11 568.387,1834.89C560.874,1831.68 554.934,1827.06 550.567,1821.03C546.201,1814.99 543.953,1807.86 543.825,1799.64L572.721,1799.64C573.106,1805.16 575.065,1809.53 578.597,1812.74C582.128,1815.95 586.977,1817.56 593.141,1817.56C599.434,1817.56 604.379,1816.05 607.975,1813.03C611.571,1810.01 613.369,1806.06 613.369,1801.18C613.369,1797.2 612.149,1793.93 609.708,1791.36C607.268,1788.79 604.218,1786.77 600.558,1785.29C596.898,1783.81 591.857,1782.18 585.435,1780.38C576.702,1777.81 569.607,1775.27 564.149,1772.77C558.69,1770.26 554.003,1766.48 550.086,1761.4C546.169,1756.33 544.21,1749.56 544.21,1741.08C544.21,1733.12 546.201,1726.18 550.182,1720.27C554.163,1714.37 559.75,1709.84 566.942,1706.69C574.134,1703.55 582.353,1701.97 591.6,1701.97C605.47,1701.97 616.74,1705.34 625.409,1712.09C634.078,1718.83 638.862,1728.24 639.761,1740.31L610.094,1740.31C609.837,1735.68 607.878,1731.86 604.218,1728.85C600.558,1725.83 595.71,1724.32 589.674,1724.32C584.408,1724.32 580.202,1725.67 577.056,1728.36C573.909,1731.06 572.336,1734.98 572.336,1740.12C572.336,1743.71 573.524,1746.7 575.9,1749.07C578.276,1751.45 581.229,1753.38 584.761,1754.85C588.293,1756.33 593.27,1758.03 599.691,1759.96C608.424,1762.53 615.552,1765.1 621.074,1767.66C626.597,1770.23 631.349,1774.09 635.33,1779.22C639.311,1784.36 641.302,1791.1 641.302,1799.45C641.302,1806.64 639.44,1813.32 635.715,1819.48C631.991,1825.65 626.532,1830.56 619.34,1834.22C612.149,1837.88 603.608,1839.71 593.719,1839.71Z" style="fill:white;fill-rule:nonzero;"/>
            </g>
            <g transform="matrix(0.5,0,0,0.5,426.484,1054.16)">
                <path d="M668.079,1703.9L618.763,1838.36L586.013,1838.36L536.697,1703.9L565.593,1703.9L602.581,1810.82L639.375,1703.9L668.079,1703.9Z" style="fill-rule:nonzero;"/>
            </g>
            <g transform="matrix(0.5,0,0,0.5,641.484,1054.16)">
                <path d="M574.262,1725.67L574.262,1759.38L619.533,1759.38L619.533,1780.76L574.262,1780.76L574.262,1816.4L625.312,1816.4L625.312,1838.36L547.292,1838.36L547.292,1703.71L625.312,1703.71L625.312,1725.67L574.262,1725.67Z" style="fill-rule:nonzero;"/>
            </g>
            <g transform="matrix(0.5,0,0,0.5,856.932,1054.16)">
                <path d="M574.262,1816.98L618.57,1816.98L618.57,1838.36L547.292,1838.36L547.292,1703.9L574.262,1703.9L574.262,1816.98Z" style="fill-rule:nonzero;"/>
            </g>
            <g transform="matrix(0.5,0,0,0.5,1072.38,1054.16)">
                <path d="M609.708,1839.71C597.122,1839.71 585.564,1836.76 575.033,1830.85C564.502,1824.94 556.154,1816.76 549.989,1806.29C543.825,1795.82 540.742,1783.97 540.742,1770.75C540.742,1757.65 543.825,1745.86 549.989,1735.4C556.154,1724.93 564.502,1716.74 575.033,1710.83C585.564,1704.93 597.122,1701.97 609.708,1701.97C622.423,1701.97 634.013,1704.93 644.48,1710.83C654.947,1716.74 663.231,1724.93 669.331,1735.4C675.431,1745.86 678.482,1757.65 678.482,1770.75C678.482,1783.97 675.431,1795.82 669.331,1806.29C663.231,1816.76 654.915,1824.94 644.384,1830.85C633.853,1836.76 622.294,1839.71 609.708,1839.71ZM609.708,1815.63C617.799,1815.63 624.927,1813.8 631.092,1810.14C637.256,1806.48 642.072,1801.25 645.54,1794.44C649.007,1787.63 650.741,1779.74 650.741,1770.75C650.741,1761.76 649.007,1753.89 645.54,1747.15C642.072,1740.4 637.256,1735.24 631.092,1731.64C624.927,1728.04 617.799,1726.25 609.708,1726.25C601.617,1726.25 594.458,1728.04 588.229,1731.64C582,1735.24 577.152,1740.4 573.684,1747.15C570.217,1753.89 568.483,1761.76 568.483,1770.75C568.483,1779.74 570.217,1787.63 573.684,1794.44C577.152,1801.25 582,1806.48 588.229,1810.14C594.458,1813.8 601.617,1815.63 609.708,1815.63Z" style="fill-rule:nonzero;"/>
            </g>
            <g transform="matrix(0.5,0,0,0.5,1287.83,1054.16)">
                <path d="M574.84,1815.63L635.33,1815.63L635.33,1838.36L543.632,1838.36L543.632,1817.56L603.736,1726.63L543.632,1726.63L543.632,1703.9L635.33,1703.9L635.33,1724.7L574.84,1815.63Z" style="fill-rule:nonzero;"/>
            </g>
            <g transform="matrix(0.5,0,0,0.5,486.534,838.326)">
                <path d="M574.262,1725.67L574.262,1759.38L619.533,1759.38L619.533,1780.76L574.262,1780.76L574.262,1816.4L625.312,1816.4L625.312,1838.36L547.292,1838.36L547.292,1703.71L625.312,1703.71L625.312,1725.67L574.262,1725.67Z" style="fill:white;fill-rule:nonzero;"/>
            </g>
            <g transform="matrix(0.5,0,0,0.5,701.981,838.326)">
                <path d="M625.698,1703.9L625.698,1798.29C625.698,1811.39 621.909,1821.57 614.332,1828.83C606.755,1836.08 596.609,1839.71 583.894,1839.71C571.052,1839.71 560.681,1835.99 552.783,1828.54C544.884,1821.09 540.935,1810.69 540.935,1797.33L567.905,1797.33C568.033,1803.11 569.414,1807.6 572.047,1810.82C574.68,1814.03 578.5,1815.63 583.509,1815.63C588.389,1815.63 592.114,1814.09 594.682,1811.01C597.251,1807.92 598.535,1803.69 598.535,1798.29L598.535,1703.9L625.698,1703.9Z" style="fill:white;fill-rule:nonzero;"/>
            </g>
            <g transform="matrix(0.5,0,0,0.5,917.429,838.326)">
                <path d="M629.743,1812.74L576.189,1812.74L567.327,1838.36L539.009,1838.36L587.362,1703.71L618.763,1703.71L667.116,1838.36L638.605,1838.36L629.743,1812.74ZM622.423,1791.17L602.966,1734.91L583.509,1791.17L622.423,1791.17Z" style="fill:white;fill-rule:nonzero;"/>
            </g>
        </g>
        <g transform="matrix(1.05001,0,0,1.05001,-910.019,-986.212)">
            <path d="M2826,1349L2830.49,1327.8L2823.99,1327.8L2824.61,1324.88L2840.98,1324.88L2840.37,1327.8L2833.87,1327.8L2829.36,1349L2826,1349Z" style="fill:rgb(0,123,255);fill-rule:nonzero;"/>
            <path d="M2843.24,1349L2845.2,1339.89L2841.22,1324.88L2844.61,1324.88L2847.41,1336.55L2855.06,1324.88L2858.83,1324.88L2848.48,1339.94L2846.6,1349L2843.24,1349Z" style="fill:rgb(0,123,255);fill-rule:nonzero;"/>
            <path d="M2857.01,1349L2862.11,1324.88L2867.87,1324.88C2869.62,1324.88 2871.05,1325.15 2872.14,1325.68C2873.23,1326.22 2874.02,1326.97 2874.51,1327.93C2875.01,1328.9 2875.26,1330.04 2875.26,1331.33C2875.26,1332.68 2875.02,1333.88 2874.56,1334.92C2874.1,1335.96 2873.42,1336.84 2872.52,1337.55C2871.62,1338.27 2870.52,1338.81 2869.23,1339.17C2867.93,1339.53 2866.46,1339.71 2864.8,1339.71L2862.31,1339.71L2860.34,1349L2857.01,1349ZM2862.92,1336.89L2865.21,1336.89C2866.58,1336.89 2867.77,1336.69 2868.76,1336.29C2869.75,1335.89 2870.51,1335.28 2871.05,1334.47C2871.59,1333.65 2871.86,1332.64 2871.86,1331.41C2871.86,1330.13 2871.5,1329.19 2870.78,1328.6C2870.07,1328.01 2868.98,1327.72 2867.52,1327.72L2864.86,1327.72L2862.92,1336.89Z" style="fill:rgb(0,123,255);fill-rule:nonzero;"/>
            <path d="M2876.51,1349L2881.61,1324.88L2894.14,1324.88L2893.53,1327.79L2884.35,1327.79L2882.81,1334.96L2891.41,1334.96L2890.83,1337.83L2882.22,1337.83L2880.45,1346.08L2889.66,1346.08L2889.03,1349L2876.51,1349Z" style="fill:rgb(0,123,255);fill-rule:nonzero;"/>
            <path d="M2902.95,1349L2908.05,1324.88L2920.57,1324.88L2919.98,1327.79L2910.79,1327.79L2909.06,1336L2917.65,1336L2917.02,1338.89L2908.41,1338.89L2906.28,1349L2902.95,1349Z" style="fill:rgb(0,123,255);fill-rule:nonzero;"/>
            <path d="M2916.33,1349L2929.39,1324.88L2933.12,1324.88L2936.03,1349L2932.73,1349L2931.92,1341.79L2923.72,1341.79L2919.94,1349L2916.33,1349ZM2925.24,1338.86L2931.64,1338.86L2931.06,1333.08C2930.98,1332.31 2930.91,1331.48 2930.83,1330.57C2930.75,1329.67 2930.71,1328.85 2930.7,1328.1L2930.62,1328.1C2930.3,1328.88 2929.94,1329.69 2929.53,1330.52C2929.13,1331.36 2928.7,1332.22 2928.24,1333.1L2925.24,1338.86Z" style="fill:rgb(0,123,255);fill-rule:nonzero;"/>
            <path d="M2944.14,1349.33C2942.94,1349.33 2941.88,1349.23 2940.95,1349.03C2940.02,1348.84 2939.18,1348.54 2938.43,1348.16L2938.43,1344.96C2939.2,1345.37 2940.06,1345.72 2941,1346.01C2941.94,1346.31 2943,1346.46 2944.18,1346.46C2944.88,1346.46 2945.55,1346.38 2946.2,1346.22C2946.84,1346.06 2947.41,1345.81 2947.9,1345.48C2948.4,1345.14 2948.79,1344.71 2949.08,1344.19C2949.36,1343.67 2949.5,1343.06 2949.5,1342.35C2949.5,1341.7 2949.37,1341.14 2949.09,1340.66C2948.82,1340.18 2948.4,1339.72 2947.84,1339.28C2947.28,1338.83 2946.56,1338.36 2945.68,1337.85C2944.89,1337.35 2944.16,1336.83 2943.5,1336.27C2942.84,1335.7 2942.31,1335.05 2941.92,1334.29C2941.53,1333.54 2941.34,1332.64 2941.34,1331.58C2941.34,1330.47 2941.54,1329.48 2941.96,1328.61C2942.37,1327.74 2942.94,1327 2943.67,1326.39C2944.4,1325.78 2945.25,1325.32 2946.22,1325.01C2947.19,1324.69 2948.23,1324.54 2949.34,1324.54C2950.6,1324.54 2951.72,1324.67 2952.68,1324.92C2953.64,1325.18 2954.57,1325.54 2955.47,1325.99L2954.22,1328.74C2953.55,1328.39 2952.8,1328.09 2951.95,1327.84C2951.11,1327.58 2950.24,1327.46 2949.34,1327.46C2948.71,1327.46 2948.13,1327.54 2947.58,1327.7C2947.04,1327.87 2946.56,1328.12 2946.15,1328.45C2945.73,1328.79 2945.41,1329.2 2945.19,1329.67C2944.97,1330.15 2944.85,1330.71 2944.85,1331.35C2944.85,1332.03 2944.98,1332.6 2945.24,1333.06C2945.5,1333.51 2945.88,1333.93 2946.39,1334.3C2946.89,1334.68 2947.51,1335.08 2948.25,1335.52C2949.21,1336.1 2950.04,1336.68 2950.74,1337.27C2951.45,1337.87 2951.99,1338.54 2952.38,1339.29C2952.77,1340.05 2952.97,1340.96 2952.97,1342.04C2952.97,1343.26 2952.75,1344.33 2952.31,1345.24C2951.87,1346.15 2951.25,1346.91 2950.46,1347.52C2949.67,1348.12 2948.74,1348.57 2947.66,1348.88C2946.59,1349.18 2945.42,1349.33 2944.14,1349.33Z" style="fill:rgb(0,123,255);fill-rule:nonzero;"/>
            <path d="M2960.01,1349L2964.5,1327.8L2958,1327.8L2958.63,1324.88L2974.99,1324.88L2974.38,1327.8L2967.88,1327.8L2963.38,1349L2960.01,1349Z" style="fill:rgb(0,123,255);fill-rule:nonzero;"/>
            <path d="M2970.64,1353.36C2971.04,1352.44 2971.45,1351.5 2971.85,1350.53C2972.25,1349.55 2972.63,1348.6 2972.99,1347.66C2973.34,1346.73 2973.66,1345.87 2973.95,1345.07L2977.35,1345.07L2977.48,1345.45C2977.12,1346.26 2976.7,1347.11 2976.23,1348.03C2975.75,1348.94 2975.25,1349.85 2974.72,1350.77C2974.18,1351.68 2973.65,1352.54 2973.13,1353.36L2970.64,1353.36Z" style="fill:rgb(0,123,255);fill-rule:nonzero;"/>
            <path d="M2994.6,1349L2999.09,1327.8L2992.59,1327.8L2993.22,1324.88L3009.58,1324.88L3008.97,1327.8L3002.47,1327.8L2997.97,1349L2994.6,1349Z" style="fill:rgb(0,123,255);fill-rule:nonzero;"/>
            <path d="M3008.03,1349L3013.13,1324.88L3016.49,1324.88L3014.35,1334.94L3024.54,1334.94L3026.69,1324.88L3029.99,1324.88L3024.89,1349L3021.58,1349L3023.92,1337.87L3013.72,1337.87L3011.38,1349L3008.03,1349Z" style="fill:rgb(0,123,255);fill-rule:nonzero;"/>
            <path d="M3031.14,1349L3036.27,1324.88L3039.59,1324.88L3034.46,1349L3031.14,1349Z" style="fill:rgb(0,123,255);fill-rule:nonzero;"/>
            <path d="M3040.69,1349L3045.79,1324.88L3049.47,1324.88L3056.6,1344.46L3056.7,1344.46C3056.77,1343.94 3056.87,1343.3 3056.99,1342.57C3057.11,1341.83 3057.25,1341.06 3057.4,1340.26C3057.56,1339.45 3057.71,1338.7 3057.85,1338L3060.67,1324.88L3063.77,1324.88L3058.67,1349L3055.06,1349L3047.84,1329.25L3047.72,1329.25C3047.68,1329.57 3047.62,1329.99 3047.54,1330.5C3047.46,1331.01 3047.37,1331.58 3047.27,1332.21C3047.16,1332.85 3047.05,1333.49 3046.93,1334.14C3046.81,1334.8 3046.68,1335.42 3046.55,1336.02L3043.81,1349L3040.69,1349Z" style="fill:rgb(0,123,255);fill-rule:nonzero;"/>
            <path d="M3064.93,1349L3070.02,1324.88L3073.36,1324.88L3070.83,1336.69L3073.04,1334.2L3082,1324.88L3086.03,1324.88L3075.62,1335.69L3081.19,1349L3077.51,1349L3072.98,1337.65L3070.24,1339.61L3068.26,1349L3064.93,1349Z" style="fill:rgb(0,123,255);fill-rule:nonzero;"/>
            <path d="M3093.07,1349L3098.17,1324.88L3101.5,1324.88L3097.01,1346.06L3106.22,1346.06L3105.59,1349L3093.07,1349Z" style="fill:rgb(0,123,255);fill-rule:nonzero;"/>
            <path d="M3106.38,1349L3119.45,1324.88L3123.17,1324.88L3126.08,1349L3122.78,1349L3121.97,1341.79L3113.77,1341.79L3109.99,1349L3106.38,1349ZM3115.29,1338.86L3121.69,1338.86L3121.11,1333.08C3121.03,1332.31 3120.96,1331.48 3120.88,1330.57C3120.8,1329.67 3120.76,1328.85 3120.75,1328.1L3120.67,1328.1C3120.35,1328.88 3119.99,1329.69 3119.59,1330.52C3119.18,1331.36 3118.75,1332.22 3118.29,1333.1L3115.29,1338.86Z" style="fill:rgb(0,123,255);fill-rule:nonzero;"/>
            <path d="M3132.82,1349L3137.31,1327.8L3130.81,1327.8L3131.44,1324.88L3147.8,1324.88L3147.19,1327.8L3140.69,1327.8L3136.19,1349L3132.82,1349Z" style="fill:rgb(0,123,255);fill-rule:nonzero;"/>
            <path d="M3146.24,1349L3151.33,1324.88L3163.87,1324.88L3163.26,1327.79L3154.07,1327.79L3152.54,1334.96L3161.13,1334.96L3160.55,1337.83L3151.94,1337.83L3150.18,1346.08L3159.38,1346.08L3158.76,1349L3146.24,1349Z" style="fill:rgb(0,123,255);fill-rule:nonzero;"/>
            <path d="M3163.9,1349L3169,1324.88L3174.44,1324.88C3176.89,1324.88 3178.76,1325.39 3180.03,1326.42C3181.3,1327.44 3181.93,1328.99 3181.93,1331.07C3181.93,1332.28 3181.72,1333.37 3181.31,1334.34C3180.89,1335.3 3180.24,1336.13 3179.37,1336.82C3178.49,1337.51 3177.39,1338.04 3176.04,1338.43L3180.09,1349L3176.44,1349L3172.97,1339.13L3169.33,1339.13L3167.23,1349L3163.9,1349ZM3169.91,1336.32L3172.43,1336.32C3173.44,1336.32 3174.33,1336.2 3175.09,1335.97C3175.85,1335.74 3176.48,1335.4 3176.98,1334.97C3177.49,1334.54 3177.87,1334.01 3178.12,1333.39C3178.38,1332.77 3178.5,1332.06 3178.5,1331.28C3178.5,1330.01 3178.14,1329.1 3177.4,1328.56C3176.67,1328.02 3175.57,1327.75 3174.1,1327.75L3171.75,1327.75L3169.91,1336.32Z" style="fill:rgb(0,123,255);fill-rule:nonzero;"/>
        </g>
        <g transform="matrix(5.19507,0,0,5.19507,1537.25,-161.235)">
            <g transform="matrix(1.08775,0,0,1.15574,139.447,65.0345)">
                <path d="M16,1.864L16,14.136C16,14.631 15.791,15.105 15.42,15.454C15.049,15.804 14.545,16 14.02,16L0.98,16C0.455,16 -0.049,15.804 -0.42,15.454C-0.791,15.105 -1,14.631 -1,14.136L-1,1.864C-1,1.37 -0.791,0.896 -0.42,0.546C-0.049,0.197 0.455,0 0.98,0L14.02,0C14.545,0 15.049,0.197 15.42,0.546C15.791,0.896 16,1.37 16,1.864ZM15.281,1.864C15.281,1.549 15.147,1.248 14.911,1.025C14.675,0.803 14.354,0.677 14.02,0.677L0.98,0.677C0.646,0.677 0.325,0.803 0.089,1.025C-0.147,1.248 -0.281,1.549 -0.281,1.864L-0.281,14.136C-0.281,14.451 -0.148,14.753 0.089,14.975L0.089,14.976C0.325,15.198 0.646,15.323 0.98,15.323L14.02,15.323C14.354,15.323 14.675,15.198 14.911,14.976L14.911,14.975C15.148,14.753 15.281,14.451 15.281,14.136L15.281,1.864Z" style="fill:url(#_Linear1);"/>
            </g>
            <g transform="matrix(0.202724,0,0,0.202724,137.266,65.1584)">
                <circle cx="61" cy="48" r="4"/>
            </g>
            <g transform="matrix(0.202724,0,0,0.202724,137.266,65.1584)">
                <circle cx="41" cy="48" r="4"/>
            </g>
            <g transform="matrix(1.42285,0,0,1.42285,136.222,63.9164)">
                <path d="M10.475,11.131L5.525,11.131C4.509,11.131 3.673,10.295 3.673,9.279C3.673,5.616 4.176,4.478 4.614,3.893C4.943,3.453 5.547,3.31 6.038,3.557C6.411,3.749 6.753,3.997 7.051,4.292C7.683,4.108 8.351,4.095 8.988,4.254C9.277,3.976 9.605,3.741 9.962,3.557C10.453,3.31 11.057,3.453 11.386,3.893C11.824,4.478 12.327,5.616 12.327,9.279C12.327,10.295 11.491,11.131 10.475,11.131ZM10.526,4.65C10.276,4.799 9.731,5.176 9.515,5.717C8.652,5.149 7.528,5.149 6.665,5.717C6.38,5.005 5.525,4.577 5.525,4.577C5.353,4.808 4.813,5.575 4.813,9.279C4.813,9.67 5.135,9.992 5.525,9.992L10.475,9.992C10.865,9.992 11.187,9.67 11.187,9.279C11.187,5.89 10.735,4.96 10.526,4.65Z"/>
            </g>
        </g>
    </g>
    <defs>
        <linearGradient id="_Linear1" x1="0" y1="0" x2="1" y2="0" gradientUnits="userSpaceOnUse" gradientTransform="matrix(17,-16,17,16,-1,16)"><stop offset="0" style="stop-color:rgb(255,0,0);stop-opacity:1"/><stop offset="0.51" style="stop-color:rgb(255,230,1);stop-opacity:1"/><stop offset="1" style="stop-color:rgb(0,123,255);stop-opacity:1"/></linearGradient>
    </defs>
</svg>
